{
    "asset" : {
        "generator" : "Khronos glTF Blender I/O v1.6.16",
        "version" : "2.0"
    },
    "scene" : 0,
    "scenes" : [
        {
            "name" : "Scene",
            "nodes" : [
                0,
                1,
                2
            ]
        }
    ],
    "nodes" : [
        {
            "mesh" : 0,
            "name" : "Droid",
            "rotation" : [
                0.7071068286895752,
                0,
                0,
                0.7071067094802856
            ]
        },
        {
            "mesh" : 1,
            "name" : "Eye",
            "rotation" : [
                0.7071068286895752,
                0,
                0,
                0.7071067094802856
            ]
        },
        {
            "mesh" : 2,
            "name" : "Body",
            "rotation" : [
                0.7071068286895752,
                0,
                0,
                0.7071067094802856
            ]
        }
    ],
    "materials" : [
        {
            "doubleSided" : true,
            "name" : "Material",
            "pbrMetallicRoughness" : {
                "baseColorFactor" : [
                    0.800000011920929,
                    0.800000011920929,
                    0.800000011920929,
                    1
                ],
                "metallicFactor" : 0
            }
        },
        {
            "doubleSided" : true,
            "name" : "Droid:initialShadingGroup",
            "pbrMetallicRoughness" : {
                "roughnessFactor" : 0
            }
        },
        {
            "doubleSided" : true,
            "name" : "Material.001",
            "pbrMetallicRoughness" : {
                "baseColorTexture" : {
                    "index" : 0
                },
                "metallicFactor" : 0
            }
        }
    ],
    "meshes" : [
        {
            "name" : "Droid",
            "primitives" : [
                {
                    "attributes" : {
                        "POSITION" : 0,
                        "NORMAL" : 1,
                        "TEXCOORD_0" : 2
                    },
                    "indices" : 3,
                    "material" : 0
                }
            ]
        },
        {
            "name" : "Droid.001",
            "primitives" : [
                {
                    "attributes" : {
                        "POSITION" : 4,
                        "NORMAL" : 5,
                        "TEXCOORD_0" : 6
                    },
                    "indices" : 7,
                    "material" : 1
                }
            ]
        },
        {
            "name" : "Droid.002",
            "primitives" : [
                {
                    "attributes" : {
                        "POSITION" : 8,
                        "NORMAL" : 9,
                        "TEXCOORD_0" : 10
                    },
                    "indices" : 11,
                    "material" : 2
                }
            ]
        }
    ],
    "textures" : [
        {
            "sampler" : 0,
            "source" : 0
        }
    ],
    "images" : [
        {
            "mimeType" : "image/jpeg",
            "name" : "rust_completely_rusted_0072_01",
            "uri" : "Droid_textures/rust_completely_rusted_0072_01.jpg"
        }
    ],
    "accessors" : [
        {
            "bufferView" : 0,
            "componentType" : 5126,
            "count" : 37272,
            "max" : [
                17.512182235717773,
                124.0108413696289,
                39.13320541381836
            ],
            "min" : [
                -16.518142700195312,
                -0.6812390089035034,
                -33.384918212890625
            ],
            "type" : "VEC3"
        },
        {
            "bufferView" : 1,
            "componentType" : 5126,
            "count" : 37272,
            "type" : "VEC3"
        },
        {
            "bufferView" : 2,
            "componentType" : 5126,
            "count" : 37272,
            "type" : "VEC2"
        },
        {
            "bufferView" : 3,
            "componentType" : 5123,
            "count" : 134454,
            "type" : "SCALAR"
        },
        {
            "bufferView" : 4,
            "componentType" : 5126,
            "count" : 201,
            "max" : [
                3.6523330211639404,
                103.69468688964844,
                30.777048110961914
            ],
            "min" : [
                -3.6523349285125732,
                97.97684478759766,
                26.270729064941406
            ],
            "type" : "VEC3"
        },
        {
            "bufferView" : 5,
            "componentType" : 5126,
            "count" : 201,
            "type" : "VEC3"
        },
        {
            "bufferView" : 6,
            "componentType" : 5126,
            "count" : 201,
            "type" : "VEC2"
        },
        {
            "bufferView" : 7,
            "componentType" : 5123,
            "count" : 1140,
            "type" : "SCALAR"
        },
        {
            "bufferView" : 8,
            "componentType" : 5126,
            "count" : 1352,
            "max" : [
                5.72777795791626,
                74.18083953857422,
                13.96834945678711
            ],
            "min" : [
                -5.727784156799316,
                49.71263122558594,
                0.2343049943447113
            ],
            "type" : "VEC3"
        },
        {
            "bufferView" : 9,
            "componentType" : 5126,
            "count" : 1352,
            "type" : "VEC3"
        },
        {
            "bufferView" : 10,
            "componentType" : 5126,
            "count" : 1352,
            "type" : "VEC2"
        },
        {
            "bufferView" : 11,
            "componentType" : 5123,
            "count" : 5502,
            "type" : "SCALAR"
        }
    ],
    "bufferViews" : [
        {
            "buffer" : 0,
            "byteLength" : 447264,
            "byteOffset" : 0
        },
        {
            "buffer" : 0,
            "byteLength" : 447264,
            "byteOffset" : 447264
        },
        {
            "buffer" : 0,
            "byteLength" : 298176,
            "byteOffset" : 894528
        },
        {
            "buffer" : 0,
            "byteLength" : 268908,
            "byteOffset" : 1192704
        },
        {
            "buffer" : 0,
            "byteLength" : 2412,
            "byteOffset" : 1461612
        },
        {
            "buffer" : 0,
            "byteLength" : 2412,
            "byteOffset" : 1464024
        },
        {
            "buffer" : 0,
            "byteLength" : 1608,
            "byteOffset" : 1466436
        },
        {
            "buffer" : 0,
            "byteLength" : 2280,
            "byteOffset" : 1468044
        },
        {
            "buffer" : 0,
            "byteLength" : 16224,
            "byteOffset" : 1470324
        },
        {
            "buffer" : 0,
            "byteLength" : 16224,
            "byteOffset" : 1486548
        },
        {
            "buffer" : 0,
            "byteLength" : 10816,
            "byteOffset" : 1502772
        },
        {
            "buffer" : 0,
            "byteLength" : 11004,
            "byteOffset" : 1513588
        }
    ],
    "samplers" : [
        {
            "magFilter" : 9729,
            "minFilter" : 9987
        }
    ],
    "buffers" : [
        {
            "byteLength" : 1524592,
            "uri" : "DroidTextured.bin"
        }
    ]
}
