{
    "asset" : {
        "generator" : "Khronos glTF Blender I/O v1.6.16",
        "version" : "2.0"
    },
    "scene" : 0,
    "scenes" : [
        {
            "name" : "Scene",
            "nodes" : [
                0,
                1,
                2,
                3,
                4
            ]
        }
    ],
    "nodes" : [
        {
            "mesh" : 0,
            "name" : "Droid"
        },
        {
            "mesh" : 1,
            "name" : "Eye"
        },
        {
            "mesh" : 2,
            "name" : "Body"
        },
        {
            "mesh" : 3,
            "name" : "Hat"
        },
        {
            "mesh" : 4,
            "name" : "Saber"
        }
    ],
    "materials" : [
        {
            "doubleSided" : true,
            "name" : "Material.001",
            "normalTexture" : {
                "index" : 0
            },
            "pbrMetallicRoughness" : {
                "baseColorTexture" : {
                    "index" : 1
                },
                "metallicRoughnessTexture" : {
                    "index" : 2
                }
            }
        },
        {
            "doubleSided" : true,
            "name" : "Droid:initialShadingGroup",
            "pbrMetallicRoughness" : {
                "baseColorFactor" : [
                    1,
                    0.24543745815753937,
                    0.2717599868774414,
                    1
                ],
                "roughnessFactor" : 0.2380952388048172
            }
        },
        {
            "doubleSided" : true,
            "name" : "Material.002",
            "pbrMetallicRoughness" : {
                "baseColorTexture" : {
                    "index" : 3
                },
                "metallicFactor" : 0
            }
        },
        {
            "doubleSided" : true,
            "name" : "Material.003",
            "pbrMetallicRoughness" : {
                "baseColorFactor" : [
                    0.05438810586929321,
                    0.6272526383399963,
                    0.8000000715255737,
                    1
                ],
                "metallicFactor" : 0
            }
        },
        {
            "doubleSided" : true,
            "name" : "Material.004",
            "pbrMetallicRoughness" : {
                "baseColorFactor" : [
                    0.800000011920929,
                    0.800000011920929,
                    0.800000011920929,
                    1
                ],
                "metallicFactor" : 0
            }
        }
    ],
    "meshes" : [
        {
            "name" : "Droid",
            "primitives" : [
                {
                    "attributes" : {
                        "POSITION" : 0,
                        "NORMAL" : 1,
                        "TEXCOORD_0" : 2
                    },
                    "indices" : 3,
                    "material" : 0
                }
            ]
        },
        {
            "name" : "Droid.001",
            "primitives" : [
                {
                    "attributes" : {
                        "POSITION" : 4,
                        "NORMAL" : 5,
                        "TEXCOORD_0" : 6
                    },
                    "indices" : 7,
                    "material" : 1
                }
            ]
        },
        {
            "name" : "Droid.002",
            "primitives" : [
                {
                    "attributes" : {
                        "POSITION" : 8,
                        "NORMAL" : 9,
                        "TEXCOORD_0" : 10
                    },
                    "indices" : 11,
                    "material" : 2
                }
            ]
        },
        {
            "name" : "Droid.003",
            "primitives" : [
                {
                    "attributes" : {
                        "POSITION" : 12,
                        "NORMAL" : 13,
                        "TEXCOORD_0" : 14
                    },
                    "indices" : 15,
                    "material" : 0
                }
            ]
        },
        {
            "name" : "Droid.004",
            "primitives" : [
                {
                    "attributes" : {
                        "POSITION" : 16,
                        "NORMAL" : 17,
                        "TEXCOORD_0" : 18
                    },
                    "indices" : 19,
                    "material" : 3
                },
                {
                    "attributes" : {
                        "POSITION" : 20,
                        "NORMAL" : 21,
                        "TEXCOORD_0" : 22
                    },
                    "indices" : 23,
                    "material" : 4
                }
            ]
        }
    ],
    "textures" : [
        {
            "sampler" : 0,
            "source" : 0
        },
        {
            "sampler" : 0,
            "source" : 1
        },
        {
            "sampler" : 0,
            "source" : 2
        },
        {
            "sampler" : 0,
            "source" : 3
        }
    ],
    "images" : [
        {
            "mimeType" : "image/png",
            "name" : "rustediron2_normal",
            "uri" : "Droid_textures/rustediron2_normal.png"
        },
        {
            "mimeType" : "image/png",
            "name" : "rustediron2_basecolor",
            "uri" : "Droid_textures/rustediron2_basecolor.png"
        },
        {
            "mimeType" : "image/png",
            "name" : "rustediron2_metallic_roughness",
            "uri" : "Droid_textures/rustediron2_metallic_roughness.png"
        },
        {
            "mimeType" : "image/jpeg",
            "name" : "rust_completely_rusted_0072_01",
            "uri" : "Droid_textures/rust_completely_rusted_0072_01.jpg"
        }
    ],
    "accessors" : [
        {
            "bufferView" : 0,
            "componentType" : 5126,
            "count" : 72541,
            "max" : [
                17.512182235717773,
                113.87808227539062,
                39.13320541381836
            ],
            "min" : [
                -16.518142700195312,
                -0.6812390089035034,
                -33.384918212890625
            ],
            "type" : "VEC3"
        },
        {
            "bufferView" : 1,
            "componentType" : 5126,
            "count" : 72541,
            "type" : "VEC3"
        },
        {
            "bufferView" : 2,
            "componentType" : 5126,
            "count" : 72541,
            "type" : "VEC2"
        },
        {
            "bufferView" : 3,
            "componentType" : 5125,
            "count" : 122988,
            "type" : "SCALAR"
        },
        {
            "bufferView" : 4,
            "componentType" : 5126,
            "count" : 201,
            "max" : [
                3.6523330211639404,
                103.69468688964844,
                30.777048110961914
            ],
            "min" : [
                -3.6523349285125732,
                97.97684478759766,
                26.270729064941406
            ],
            "type" : "VEC3"
        },
        {
            "bufferView" : 5,
            "componentType" : 5126,
            "count" : 201,
            "type" : "VEC3"
        },
        {
            "bufferView" : 6,
            "componentType" : 5126,
            "count" : 201,
            "type" : "VEC2"
        },
        {
            "bufferView" : 7,
            "componentType" : 5123,
            "count" : 1140,
            "type" : "SCALAR"
        },
        {
            "bufferView" : 8,
            "componentType" : 5126,
            "count" : 2275,
            "max" : [
                5.72777795791626,
                74.18083953857422,
                13.96834945678711
            ],
            "min" : [
                -5.727784156799316,
                49.71263122558594,
                0.2343049943447113
            ],
            "type" : "VEC3"
        },
        {
            "bufferView" : 9,
            "componentType" : 5126,
            "count" : 2275,
            "type" : "VEC3"
        },
        {
            "bufferView" : 10,
            "componentType" : 5126,
            "count" : 2275,
            "type" : "VEC2"
        },
        {
            "bufferView" : 11,
            "componentType" : 5123,
            "count" : 5502,
            "type" : "SCALAR"
        },
        {
            "bufferView" : 12,
            "componentType" : 5126,
            "count" : 963,
            "max" : [
                15.11550235748291,
                100.81602478027344,
                26.271778106689453
            ],
            "min" : [
                -15.115508079528809,
                80.81147766113281,
                2.476557970046997
            ],
            "type" : "VEC3"
        },
        {
            "bufferView" : 13,
            "componentType" : 5126,
            "count" : 963,
            "type" : "VEC3"
        },
        {
            "bufferView" : 14,
            "componentType" : 5126,
            "count" : 963,
            "type" : "VEC2"
        },
        {
            "bufferView" : 15,
            "componentType" : 5123,
            "count" : 2286,
            "type" : "SCALAR"
        },
        {
            "bufferView" : 16,
            "componentType" : 5126,
            "count" : 318,
            "max" : [
                -11.269379615783691,
                124.0108413696289,
                35.265380859375
            ],
            "min" : [
                -12.887133598327637,
                70.49427795410156,
                32.602378845214844
            ],
            "type" : "VEC3"
        },
        {
            "bufferView" : 17,
            "componentType" : 5126,
            "count" : 318,
            "type" : "VEC3"
        },
        {
            "bufferView" : 18,
            "componentType" : 5126,
            "count" : 318,
            "type" : "VEC2"
        },
        {
            "bufferView" : 19,
            "componentType" : 5123,
            "count" : 600,
            "type" : "SCALAR"
        },
        {
            "bufferView" : 20,
            "componentType" : 5126,
            "count" : 5370,
            "max" : [
                -10.885623931884766,
                70.72996520996094,
                34.60734939575195
            ],
            "min" : [
                -13.270890235900879,
                57.324859619140625,
                31.96139907836914
            ],
            "type" : "VEC3"
        },
        {
            "bufferView" : 21,
            "componentType" : 5126,
            "count" : 5370,
            "type" : "VEC3"
        },
        {
            "bufferView" : 22,
            "componentType" : 5126,
            "count" : 5370,
            "type" : "VEC2"
        },
        {
            "bufferView" : 23,
            "componentType" : 5123,
            "count" : 8580,
            "type" : "SCALAR"
        }
    ],
    "bufferViews" : [
        {
            "buffer" : 0,
            "byteLength" : 870492,
            "byteOffset" : 0
        },
        {
            "buffer" : 0,
            "byteLength" : 870492,
            "byteOffset" : 870492
        },
        {
            "buffer" : 0,
            "byteLength" : 580328,
            "byteOffset" : 1740984
        },
        {
            "buffer" : 0,
            "byteLength" : 491952,
            "byteOffset" : 2321312
        },
        {
            "buffer" : 0,
            "byteLength" : 2412,
            "byteOffset" : 2813264
        },
        {
            "buffer" : 0,
            "byteLength" : 2412,
            "byteOffset" : 2815676
        },
        {
            "buffer" : 0,
            "byteLength" : 1608,
            "byteOffset" : 2818088
        },
        {
            "buffer" : 0,
            "byteLength" : 2280,
            "byteOffset" : 2819696
        },
        {
            "buffer" : 0,
            "byteLength" : 27300,
            "byteOffset" : 2821976
        },
        {
            "buffer" : 0,
            "byteLength" : 27300,
            "byteOffset" : 2849276
        },
        {
            "buffer" : 0,
            "byteLength" : 18200,
            "byteOffset" : 2876576
        },
        {
            "buffer" : 0,
            "byteLength" : 11004,
            "byteOffset" : 2894776
        },
        {
            "buffer" : 0,
            "byteLength" : 11556,
            "byteOffset" : 2905780
        },
        {
            "buffer" : 0,
            "byteLength" : 11556,
            "byteOffset" : 2917336
        },
        {
            "buffer" : 0,
            "byteLength" : 7704,
            "byteOffset" : 2928892
        },
        {
            "buffer" : 0,
            "byteLength" : 4572,
            "byteOffset" : 2936596
        },
        {
            "buffer" : 0,
            "byteLength" : 3816,
            "byteOffset" : 2941168
        },
        {
            "buffer" : 0,
            "byteLength" : 3816,
            "byteOffset" : 2944984
        },
        {
            "buffer" : 0,
            "byteLength" : 2544,
            "byteOffset" : 2948800
        },
        {
            "buffer" : 0,
            "byteLength" : 1200,
            "byteOffset" : 2951344
        },
        {
            "buffer" : 0,
            "byteLength" : 64440,
            "byteOffset" : 2952544
        },
        {
            "buffer" : 0,
            "byteLength" : 64440,
            "byteOffset" : 3016984
        },
        {
            "buffer" : 0,
            "byteLength" : 42960,
            "byteOffset" : 3081424
        },
        {
            "buffer" : 0,
            "byteLength" : 17160,
            "byteOffset" : 3124384
        }
    ],
    "samplers" : [
        {
            "magFilter" : 9729,
            "minFilter" : 9987
        }
    ],
    "buffers" : [
        {
            "byteLength" : 3141544,
            "uri" : "DroidTextured.bin"
        }
    ]
}
